<svg width="92" height="25" viewBox="0 0 92 25" fill="none" xmlns="http://www.w3.org/2000/svg">
<path d="M5.03 21.99C6.17 21.99 7.01 21.84 7.55 21.54C8.11 21.24 8.39 20.76 8.39 20.1C8.39 19.42 8.12 18.88 7.58 18.48C7.04 18.08 6.15 17.63 4.91 17.13C4.31 16.89 3.73 16.65 3.17 16.41C2.63 16.15 2.16 15.85 1.76 15.51C1.36 15.17 1.04 14.76 0.8 14.28C0.56 13.8 0.44 13.21 0.44 12.51C0.44 11.13 0.95 10.04 1.97 9.24C2.99 8.42 4.38 8.01 6.14 8.01C6.58 8.01 7.02 8.04 7.46 8.1C7.9 8.14 8.31 8.2 8.69 8.28C9.07 8.34 9.4 8.41 9.68 8.49C9.98 8.57 10.21 8.64 10.37 8.7L9.86 11.1C9.56 10.94 9.09 10.78 8.45 10.62C7.81 10.44 7.04 10.35 6.14 10.35C5.36 10.35 4.68 10.51 4.1 10.83C3.52 11.13 3.23 11.61 3.23 12.27C3.23 12.61 3.29 12.91 3.41 13.17C3.55 13.43 3.75 13.67 4.01 13.89C4.29 14.09 4.63 14.28 5.03 14.46C5.43 14.64 5.91 14.83 6.47 15.03C7.21 15.31 7.87 15.59 8.45 15.87C9.03 16.13 9.52 16.44 9.92 16.8C10.34 17.16 10.66 17.6 10.88 18.12C11.1 18.62 11.21 19.24 11.21 19.98C11.21 21.42 10.67 22.51 9.59 23.25C8.53 23.99 7.01 24.36 5.03 24.36C3.65 24.36 2.57 24.24 1.79 24C1.01 23.78 0.48 23.61 0.2 23.49L0.71 21.09C1.03 21.21 1.54 21.39 2.24 21.63C2.94 21.87 3.87 21.99 5.03 21.99ZM27.2087 23.55C26.5687 23.71 25.7187 23.88 24.6587 24.06C23.6187 24.24 22.4087 24.33 21.0287 24.33C19.8287 24.33 18.8187 24.16 17.9987 23.82C17.1787 23.46 16.5187 22.96 16.0187 22.32C15.5187 21.68 15.1587 20.93 14.9387 20.07C14.7187 19.19 14.6087 18.22 14.6087 17.16V8.4H17.3987V16.56C17.3987 18.46 17.6987 19.82 18.2987 20.64C18.8987 21.46 19.9087 21.87 21.3287 21.87C21.6287 21.87 21.9387 21.86 22.2587 21.84C22.5787 21.82 22.8787 21.8 23.1587 21.78C23.4387 21.74 23.6887 21.71 23.9087 21.69C24.1487 21.65 24.3187 21.61 24.4187 21.57V8.4H27.2087V23.55Z" fill="#57B460"/>
<path d="M42.0952 11.7C41.7552 11.42 41.2652 11.15 40.6252 10.89C39.9852 10.63 39.2852 10.5 38.5252 10.5C37.7252 10.5 37.0352 10.65 36.4552 10.95C35.8952 11.23 35.4352 11.63 35.0752 12.15C34.7152 12.65 34.4552 13.25 34.2952 13.95C34.1352 14.65 34.0552 15.4 34.0552 16.2C34.0552 18.02 34.5052 19.43 35.4052 20.43C36.3052 21.41 37.5052 21.9 39.0052 21.9C39.7652 21.9 40.3952 21.87 40.8952 21.81C41.4152 21.73 41.8152 21.65 42.0952 21.57V11.7ZM42.0952 1.2L44.8852 0.719999V23.55C44.2452 23.73 43.4252 23.91 42.4252 24.09C41.4252 24.27 40.2752 24.36 38.9752 24.36C37.7752 24.36 36.6952 24.17 35.7352 23.79C34.7752 23.41 33.9552 22.87 33.2752 22.17C32.5952 21.47 32.0652 20.62 31.6852 19.62C31.3252 18.6 31.1452 17.46 31.1452 16.2C31.1452 15 31.2952 13.9 31.5952 12.9C31.9152 11.9 32.3752 11.04 32.9752 10.32C33.5752 9.6 34.3052 9.04 35.1652 8.64C36.0452 8.24 37.0452 8.04 38.1652 8.04C39.0652 8.04 39.8552 8.16 40.5352 8.4C41.2352 8.64 41.7552 8.87 42.0952 9.09V1.2ZM63.4513 16.2C63.4513 17.44 63.2713 18.56 62.9113 19.56C62.5513 20.56 62.0413 21.42 61.3813 22.14C60.7413 22.86 59.9713 23.42 59.0713 23.82C58.1713 24.2 57.1913 24.39 56.1313 24.39C55.0713 24.39 54.0913 24.2 53.1913 23.82C52.2913 23.42 51.5113 22.86 50.8513 22.14C50.2113 21.42 49.7113 20.56 49.3513 19.56C48.9913 18.56 48.8113 17.44 48.8113 16.2C48.8113 14.98 48.9913 13.87 49.3513 12.87C49.7113 11.85 50.2113 10.98 50.8513 10.26C51.5113 9.54 52.2913 8.99 53.1913 8.61C54.0913 8.21 55.0713 8.01 56.1313 8.01C57.1913 8.01 58.1713 8.21 59.0713 8.61C59.9713 8.99 60.7413 9.54 61.3813 10.26C62.0413 10.98 62.5513 11.85 62.9113 12.87C63.2713 13.87 63.4513 14.98 63.4513 16.2ZM60.5413 16.2C60.5413 14.44 60.1413 13.05 59.3413 12.03C58.5613 10.99 57.4913 10.47 56.1313 10.47C54.7713 10.47 53.6913 10.99 52.8913 12.03C52.1113 13.05 51.7213 14.44 51.7213 16.2C51.7213 17.96 52.1113 19.36 52.8913 20.4C53.6913 21.42 54.7713 21.93 56.1313 21.93C57.4913 21.93 58.5613 21.42 59.3413 20.4C60.1413 19.36 60.5413 17.96 60.5413 16.2ZM74.1566 24.36C72.8966 24.36 71.7866 24.16 70.8266 23.76C69.8866 23.36 69.0866 22.8 68.4266 22.08C67.7866 21.36 67.3066 20.51 66.9866 19.53C66.6666 18.53 66.5066 17.43 66.5066 16.23C66.5066 15.03 66.6766 13.93 67.0166 12.93C67.3766 11.93 67.8766 11.07 68.5166 10.35C69.1566 9.61 69.9366 9.04 70.8566 8.64C71.7966 8.22 72.8366 8.01 73.9766 8.01C74.6766 8.01 75.3766 8.07 76.0766 8.19C76.7766 8.31 77.4466 8.5 78.0866 8.76L77.4566 11.13C77.0366 10.93 76.5466 10.77 75.9866 10.65C75.4466 10.53 74.8666 10.47 74.2466 10.47C72.6866 10.47 71.4866 10.96 70.6466 11.94C69.8266 12.92 69.4166 14.35 69.4166 16.23C69.4166 17.07 69.5066 17.84 69.6866 18.54C69.8866 19.24 70.1866 19.84 70.5866 20.34C71.0066 20.84 71.5366 21.23 72.1766 21.51C72.8166 21.77 73.5966 21.9 74.5166 21.9C75.2566 21.9 75.9266 21.83 76.5266 21.69C77.1266 21.55 77.5966 21.4 77.9366 21.24L78.3266 23.58C78.1666 23.68 77.9366 23.78 77.6366 23.88C77.3366 23.96 76.9966 24.03 76.6166 24.09C76.2366 24.17 75.8266 24.23 75.3866 24.27C74.9666 24.33 74.5566 24.36 74.1566 24.36ZM84.9519 21.99C86.0919 21.99 86.9319 21.84 87.4719 21.54C88.0319 21.24 88.3119 20.76 88.3119 20.1C88.3119 19.42 88.0419 18.88 87.5019 18.48C86.9619 18.08 86.0719 17.63 84.8319 17.13C84.2319 16.89 83.6519 16.65 83.0919 16.41C82.5519 16.15 82.0819 15.85 81.6819 15.51C81.2819 15.17 80.9619 14.76 80.7219 14.28C80.4819 13.8 80.3619 13.21 80.3619 12.51C80.3619 11.13 80.8719 10.04 81.8919 9.24C82.9119 8.42 84.3019 8.01 86.0619 8.01C86.5019 8.01 86.9419 8.04 87.3819 8.1C87.8219 8.14 88.2319 8.2 88.6119 8.28C88.9919 8.34 89.3219 8.41 89.6019 8.49C89.9019 8.57 90.1319 8.64 90.2919 8.7L89.7819 11.1C89.4819 10.94 89.0119 10.78 88.3719 10.62C87.7319 10.44 86.9619 10.35 86.0619 10.35C85.2819 10.35 84.6019 10.51 84.0219 10.83C83.4419 11.13 83.1519 11.61 83.1519 12.27C83.1519 12.61 83.2119 12.91 83.3319 13.17C83.4719 13.43 83.6719 13.67 83.9319 13.89C84.2119 14.09 84.5519 14.28 84.9519 14.46C85.3519 14.64 85.8319 14.83 86.3919 15.03C87.1319 15.31 87.7919 15.59 88.3719 15.87C88.9519 16.13 89.4419 16.44 89.8419 16.8C90.2619 17.16 90.5819 17.6 90.8019 18.12C91.0219 18.62 91.1319 19.24 91.1319 19.98C91.1319 21.42 90.5919 22.51 89.5119 23.25C88.4519 23.99 86.9319 24.36 84.9519 24.36C83.5719 24.36 82.4919 24.24 81.7119 24C80.9319 23.78 80.4019 23.61 80.1219 23.49L80.6319 21.09C80.9519 21.21 81.4619 21.39 82.1619 21.63C82.8619 21.87 83.7919 21.99 84.9519 21.99Z" fill="black"/>
</svg>
